<svg width="186" height="743" viewBox="0 0 186 743" fill="none" xmlns="http://www.w3.org/2000/svg">
<path d="M-8.00005 -62.2171L13.3655 -35.4285C35.1311 -8.64099 77.2624 44.9375 83.0937 98.6049C88.525 152.273 56.6565 206.033 67.4878 259.688C77.9191 313.344 132.05 366.893 147.882 420.536C164.313 474.177 142.444 527.913 142.876 581.593C142.707 635.275 164.838 688.903 175.204 715.718L185.969 742.532L-6.02995 743.002L-6.09562 716.162C-6.16129 689.321 -6.29263 635.64 -6.42397 581.958C-6.55531 528.277 -6.68665 474.596 -6.81799 420.915C-6.94933 367.233 -7.08067 313.552 -7.21201 259.871C-7.34335 206.189 -7.47469 152.508 -7.60603 98.8268C-7.73737 45.1455 -7.86871 -8.53579 -7.93438 -35.3764L-8.00005 -62.2171Z" fill="#BFE5FF"/>
</svg>
